<svg xmlns="http://www.w3.org/2000/svg" width="256" height="256"><path fill-opacity=".016" d="M0 128.004v128.004l128.25-.254 128.25-.254.254-127.75L257.008 0H0v128.004m.485.496c0 70.4.119 99.053.265 63.672.146-35.38.146-92.98 0-128C.604 29.153.485 58.1.485 128.5" fill="#1976D2" fill-rule="evenodd"/><path fill-opacity=".179" d="M107.435 1.89C98.708 5.854 91 16.081 91 23.696V27h-6.318c-3.476 0-8.585.673-11.354 1.495-5.781 1.717-12.974 7.575-15.843 12.903C55.583 44.931 55.427 45 49.422 45c-10.045 0-15.909 2.857-20.167 9.826L27.01 58.5l-.005 92.3c-.004 77.512.221 92.732 1.406 95 1.606 3.074 6.044 7.419 9.273 9.078 3.101 1.593 176.531 1.593 179.632 0 3.229-1.659 7.667-6.004 9.273-9.078 1.185-2.268 1.41-17.488 1.406-95l-.005-92.3-2.245-3.674C221.487 47.857 215.623 45 205.578 45c-6.005 0-6.161-.069-8.063-3.602-2.869-5.328-10.062-11.186-15.843-12.903-2.769-.822-7.878-1.495-11.354-1.495H164v-3.304c0-7.615-7.708-17.842-16.435-21.806-5.983-2.717-34.147-2.717-40.13 0m5.02 19.565c-1.35 1.35-2.458 3.487-2.461 4.75-.01 4.139-2.024 9.677-4.658 12.808C101.001 44.164 96.174 46 86.963 46c-7.638 0-8.289.172-11.04 2.923-2.589 2.589-2.923 3.617-2.923 9V64h109v-6.077c0-5.383-.334-6.411-2.923-9-2.751-2.751-3.402-2.923-11.04-2.923-9.211 0-14.038-1.836-18.373-6.987-2.634-3.131-4.648-8.669-4.658-12.808-.003-1.263-1.111-3.4-2.461-4.75C140.199 19.108 139.535 19 127.5 19s-12.699.108-15.045 2.455m10.655 6.941c-5.619 3.114-6.674 10.194-2.187 14.681 4.034 4.034 9.12 4.034 13.154 0 7.749-7.749-1.394-19.988-10.967-14.681M46 150.5V237h163V64h-3.793c-3.668 0-3.833.152-5.037 4.655-1.552 5.8-7.222 11.711-12.693 13.23-5.525 1.533-114.429 1.533-119.954 0-5.471-1.519-11.141-7.43-12.693-13.23C53.626 64.152 53.461 64 49.793 64H46v86.5m21.888-49c-5.505 2.992-6.157 11.57-1.176 15.488C69.208 118.952 70.666 119 127.5 119c56.834 0 58.292-.048 60.788-2.012 5.072-3.99 4.308-12.594-1.379-15.535-4.134-2.138-115.082-2.094-119.021.047m-1.393 46.914c-4.801 4.801-4.017 12.23 1.596 15.133 4.191 2.168 114.627 2.168 118.818 0 5.613-2.903 6.397-10.332 1.596-15.133L186.091 146H68.909l-2.414 2.414m-.572 46.509c-3.879 3.879-3.881 7.973-.006 12.311l2.916 3.266 29.834.315c26.262.278 30.208.117 32.965-1.344 5.747-3.044 6.975-9.408 2.779-14.394L131.822 192H68.846l-2.923 2.923" fill="#1976D2" fill-rule="evenodd"/><path fill-opacity=".388" d="M109.718 1.393c-5.553 2.046-10.406 5.614-13.334 9.805-2.855 4.086-5.272 10.157-5.34 13.409-.04 1.914-.767 2.157-7.916 2.647-4.615.316-9.748 1.369-12.407 2.545-5.159 2.282-11.873 8.739-13.718 13.193-1.231 2.972-1.337 3.008-8.874 3.01-9.012.001-13.037 1.684-17.558 7.341L27.5 57.185l-.298 91.158c-.201 61.436.043 92.336.75 94.772 1.469 5.069 4.706 8.825 9.469 10.989 3.869 1.757 8.498 1.852 90.079 1.852 81.581 0 86.21-.095 90.079-1.852 4.763-2.164 8-5.92 9.469-10.989.707-2.436.951-33.336.75-94.772l-.298-91.158-3.071-3.842c-4.521-5.657-8.546-7.34-17.558-7.341-7.537-.002-7.643-.038-8.874-3.01-1.845-4.454-8.559-10.911-13.718-13.193-2.638-1.167-7.782-2.228-12.301-2.538l-7.766-.532-.632-3.956c-1.31-8.193-7-15.825-14.946-20.048C144.969.778 142.741.498 129 .264c-11.333-.193-16.517.11-19.282 1.129m4.758 18.003c-3.377 1.471-5.476 5.185-5.476 9.691 0 4.569-3.59 10.613-8.061 13.572-3.454 2.286-5.439 2.745-14.073 3.257C74.329 46.659 73 47.779 73 57.611V64h109v-6.389c0-9.832-1.329-10.952-13.866-11.695-8.634-.512-10.619-.971-14.073-3.257-4.506-2.982-8.061-9.01-8.061-13.669 0-4.574-2.506-8.622-6.119-9.882-4.412-1.538-21.663-1.342-25.405.288m10.024 8.549c-4.992 2.044-7.229 7.373-5.167 12.309C121.808 46.177 129.401 47.599 134 43c4.321-4.321 3.247-11.786-2.091-14.547-3.126-1.617-4.474-1.709-7.409-.508M45 151v87h165V64h-4.342c-4.242 0-4.371.098-5.613 4.25-1.751 5.855-4.52 9.442-9.089 11.773C187.223 81.927 184.879 82 127.5 82c-57.379 0-59.723-.073-63.456-1.977-4.569-2.331-7.338-5.918-9.089-11.773-1.242-4.152-1.371-4.25-5.613-4.25H45v87m21.756-48.023c-1.383 1.088-2.757 3.226-3.053 4.75-.705 3.627 1.744 8.7 4.892 10.134 3.533 1.61 114.277 1.61 117.81 0 3.148-1.434 5.597-6.507 4.892-10.134-.296-1.524-1.67-3.662-3.053-4.75-2.439-1.918-4.249-1.977-60.744-1.977s-58.305.059-60.744 1.977m.058 45.898c-4.179 3.734-4.337 9.057-.387 13.007l2.618 2.618h116.91l2.618-2.618c3.95-3.95 3.792-9.273-.387-13.007L184.968 146H70.032l-3.218 2.875m1.042 44.641c-3.742 2.033-5.201 6.723-3.418 10.989.766 1.834 2.301 3.82 3.412 4.415 1.319.706 12.563 1.08 32.449 1.08 28.979 0 30.553-.096 32.989-2.012 1.407-1.107 2.847-3.324 3.199-4.927.743-3.384-1.501-8.463-4.432-10.031-1.201-.643-13.123-1.015-31.739-.99-23.964.032-30.335.322-32.46 1.476" fill="#1976D2" fill-rule="evenodd"/><path fill-opacity=".381" d="M112.5.885C101.427 3.79 93.398 12.546 91.532 23.75L90.824 28l-7.162.044c-11.793.072-19.294 4.014-24.95 13.113L55.701 46h-7.035c-8.926 0-14.709 2.596-18.482 8.298L27.5 58.353l-.271 89.889c-.192 63.845.053 91.092.846 94.038 1.419 5.267 7.236 11.158 12.448 12.605 5.577 1.548 168.377 1.548 173.954 0 5.212-1.447 11.029-7.338 12.448-12.605.793-2.946 1.038-30.193.846-94.038l-.271-89.889-2.684-4.055C221.043 48.596 215.26 46 206.334 46h-7.035l-3.011-4.843c-5.656-9.099-13.157-13.041-24.95-13.113L164.176 28l-.708-4.25c-1.511-9.074-6.745-16.257-14.968-20.542-4.598-2.396-6.126-2.626-19-2.858-7.7-.139-15.35.102-17 .535m-.577 20.038C109.946 22.9 109 24.852 109 26.955c0 5.929-4.424 13.533-9.5 16.331-1.1.606-6.401 1.376-11.781 1.711-8.852.552-10.034.863-12.451 3.28-2.22 2.22-2.74 3.77-3.085 9.197L71.767 64h111.466l-.416-6.526c-.345-5.427-.865-6.977-3.085-9.197-2.417-2.417-3.599-2.728-12.451-3.28-5.38-.335-10.681-1.105-11.781-1.711-5.076-2.798-9.5-10.402-9.5-16.331 0-2.103-.946-4.055-2.923-6.032C140.154 18 140.152 18 127.5 18c-12.652 0-12.654 0-15.577 2.923m9.532 9.532C115.901 36.008 119.874 45 127.882 45c5.024 0 8.118-3.454 8.118-9.062 0-7.246-9.284-10.745-14.545-5.483M45 151v87h165V64h-9.744l-.628 3.923c-.786 4.917-4.833 9.811-10.087 12.197-3.772 1.714-7.905 1.836-62.041 1.836-54.136 0-58.269-.122-62.041-1.836-5.254-2.386-9.301-7.28-10.087-12.197L54.744 64H45v87m21.636-47.364c-3.43 3.43-3.518 8.227-.223 12.058l2.414 2.806h117.346l2.414-2.806c3.295-3.831 3.207-8.628-.223-12.058L185.727 101H69.273l-2.637 2.636m-.181 45.819a8.546 8.546 0 0 0 0 12.09L68.909 164h117.182l2.454-2.455c1.695-1.694 2.455-3.566 2.455-6.045s-.76-4.351-2.455-6.045L186.091 147H68.909l-2.454 2.455m2.902 43.515c-3.071 1.27-5.357 4.968-5.357 8.664 0 2.333.826 3.883 3.077 5.777L70.153 210h29.473c35.372 0 36.374-.259 36.374-9.407 0-2.194-.835-4.029-2.579-5.669l-2.579-2.424-29.671-.208c-16.319-.115-30.635.19-31.814.678" fill="#1976D2" fill-rule="evenodd"/></svg>